# xmcd CD database file
#
# Track frame offsets:
#	182
#	22312
#	61672
#	93782
#	134282
#	154230
#	187240
#	211160
#
# Disc length: 3255 seconds
#
# Revision: 0
# Processed by: cddbd v1.5.1PL2 Copyright (c) Steve Scherf et al.
# Submitted via: CDex 1.51
#
DISCID=6b0cb508
DTITLE=Michel Fernandez, Paco Sanchez, Carlos Acciari - Soledad
DYEAR=1993
DGENRE=Jazz
TTITLE0=Mister Josef
TTITLE1=Almeria
TTITLE2=Lea
TTITLE3=Alone in Sierra Leone
TTITLE4=La sopa
TTITLE5=Le sablier de la mauvaise heure
TTITLE6=For Harry Carney
TTITLE7=Soledad n°2
EXTD=YEAR: 1993
EXTT0=
EXTT1=
EXTT2=
EXTT3=
EXTT4=
EXTT5=
EXTT6=
EXTT7=
PLAYORDER=
